<svg xmlns="http://www.w3.org/2000/svg" viewBox="0 0 16 16">
  <mask id="mask">
    <rect width="16" height="16" stroke="white" fill="white" fill-opacity=".2" />
    <path fill="white" d="M8.73 2.73C8.26 2.26 7.62 2 6.96 2H4.5C3.13 2 2 3.13 2 4.5v2.47c0 .66.27 1.3.73 1.77l5.06 5.06c.39.39 1.02.39 1.41 0l4.59-4.59a.996.996 0 000-1.41L8.73 2.73zM3.38 8.09c-.31-.3-.47-.7-.47-1.13V4.5c0-.88.72-1.59 1.59-1.59h2.47c.42 0 .83.16 1.13.47l5.14 5.13-4.73 4.73zM4.01 4h2v2H4V4h.01z"/>
    <text stroke="none" fill="white" x="6.5" y="10.5" font-family="Verdana" font-size="5">
      V
    </text>
  </mask>
  <rect width="16" height="16" fill="#438FDC" mask="url(#mask)" />
</svg>