<svg version="1.1" xmlns="http://www.w3.org/2000/svg" viewBox="0 0 580 260" width="580" height="260" fill="currentColor" filter="invert(100%)">
<g stroke-linecap="round" transform="translate(90 110) rotate(0 240 30)"><path d="M15 0 C152.51 0, 290.03 0, 465 0 M15 0 C120.48 0, 225.96 0, 465 0 M465 0 C475 0, 480 5, 480 15 M465 0 C475 0, 480 5, 480 15 M480 15 C480 25.73, 480 36.45, 480 45 M480 15 C480 24.48, 480 33.96, 480 45 M480 45 C480 55, 475 60, 465 60 M480 45 C480 55, 475 60, 465 60 M465 60 C329.76 60, 194.51 60, 15 60 M465 60 C286.8 60, 108.6 60, 15 60 M15 60 C5 60, 0 55, 0 45 M15 60 C5 60, 0 55, 0 45 M0 45 C0 38.69, 0 32.38, 0 15 M0 45 C0 35.4, 0 25.81, 0 15 M0 15 C0 5, 5 0, 15 0 M0 15 C0 5, 5 0, 15 0" stroke="currentColor" stroke-width="1" fill="none"></path></g><g transform="translate(104.8876953125 128.5) rotate(0 225.1123046875 11.5)"><text x="229.1123046875" y="18.400390625" font-family="Helvetica, Segoe UI Emoji" font-size="20px" fill="currentColor" text-anchor="middle" style="white-space: pre;" direction="ltr" dominant-baseline="alphabetic">Status   Latest | Minor | Patch | Bump   Pre-releases</text></g><g stroke-linecap="round" transform="translate(10 10) rotate(0 130 23.5)"><path d="M11.75 0 C76.75 0, 141.76 0, 248.25 0 M248.25 0 C256.08 0, 260 3.92, 260 11.75 M260 11.75 C260 17.05, 260 22.35, 260 35.25 M260 35.25 C260 43.08, 256.08 47, 248.25 47 M248.25 47 C191.14 47, 134.02 47, 11.75 47 M11.75 47 C3.92 47, 0 43.08, 0 35.25 M0 35.25 C0 28.39, 0 21.52, 0 11.75 M0 11.75 C0 3.92, 3.92 0, 11.75 0" stroke="currentColor" stroke-width="1.5" fill="none" stroke-dasharray="1.5 7"></path></g><g transform="translate(52.40625 15.099999999999994) rotate(0 87.59375 18.39999999999999)"><text x="87.59375" y="14.720312499999999" font-family="Helvetica, Segoe UI Emoji" font-size="16px" fill="currentColor" text-anchor="middle" style="white-space: pre;" direction="ltr" dominant-baseline="alphabetic">Status indication </text><text x="87.59375" y="33.1203125" font-family="Helvetica, Segoe UI Emoji" font-size="16px" fill="currentColor" text-anchor="middle" style="white-space: pre;" direction="ltr" dominant-baseline="alphabetic">e.g. what will be installed</text></g><g stroke-linecap="round"><g transform="translate(310 209) rotate(0 0 -19)"><path d="M0.34 0.31 C0.35 -5.99, -0.08 -31.36, -0.06 -37.78 M-0.14 -0.01 C-0.21 -6.47, -0.6 -32.35, -0.52 -38.64" stroke="currentColor" stroke-width="2" fill="none"></path></g><g transform="translate(310 209) rotate(0 0 -19)"><path d="M6.04 -20.8 C4.7 -25.97, 2.67 -30.16, -0.52 -38.64 M6.04 -20.8 C3.87 -25.09, 2.97 -30.42, -0.52 -38.64" stroke="currentColor" stroke-width="2" fill="none"></path></g><g transform="translate(310 209) rotate(0 0 -19)"><path d="M-6.96 -20.76 C-4.59 -25.99, -2.91 -30.19, -0.52 -38.64 M-6.96 -20.76 C-5.78 -25.05, -3.32 -30.39, -0.52 -38.64" stroke="currentColor" stroke-width="2" fill="none"></path></g></g><mask></mask><g stroke-linecap="round" transform="translate(190 210) rotate(0 190 20)"><path d="M10 0 C152.56 0, 295.12 0, 370 0 M370 0 C376.67 0, 380 3.33, 380 10 M380 10 C380 14.67, 380 19.33, 380 30 M380 30 C380 36.67, 376.67 40, 370 40 M370 40 C269.78 40, 169.55 40, 10 40 M10 40 C3.33 40, 0 36.67, 0 30 M0 30 C0 25.95, 0 21.91, 0 10 M0 10 C0 3.33, 3.33 0, 10 0" stroke="currentColor" stroke-width="1.5" fill="none" stroke-dasharray="1.5 7"></path></g><g transform="translate(207.01953125 220.8) rotate(0 172.98046875 9.199999999999989)"><text x="172.98046875" y="14.720312499999999" font-family="Helvetica, Segoe UI Emoji" font-size="16px" fill="currentColor" text-anchor="middle" style="white-space: pre;" direction="ltr" dominant-baseline="alphabetic">Updateable links that will replace the version text</text></g><g stroke-linecap="round"><g transform="translate(490 209) rotate(0 0 -19)"><path d="M0.1 -0.51 C0.07 -6.82, -0.23 -31.82, -0.29 -38.13 M-0.51 0.42 C-0.35 -5.79, 0.83 -31.09, 0.8 -37.5" stroke="currentColor" stroke-width="2" fill="none"></path></g><g transform="translate(490 209) rotate(0 0 -19)"><path d="M6.86 -19.49 C4.32 -25.04, 3.27 -29.99, 0.8 -37.5 M6.86 -19.49 C5.66 -23.12, 4.62 -27.53, 0.8 -37.5" stroke="currentColor" stroke-width="2" fill="none"></path></g><g transform="translate(490 209) rotate(0 0 -19)"><path d="M-6.13 -19.81 C-5.02 -25.28, -2.41 -30.14, 0.8 -37.5 M-6.13 -19.81 C-4.36 -23.43, -2.43 -27.77, 0.8 -37.5" stroke="currentColor" stroke-width="2" fill="none"></path></g></g><mask></mask><g stroke-linecap="round"><g transform="translate(169.58445328213372 89.79562652796506) rotate(0 0 50)"><path d="M1.75 1.73 C1.69 17.73, 0.54 80.93, 0.43 97.5 M-0.74 0.2 C-1.22 16.32, -1.68 83.77, -1.57 99.77" stroke="currentColor" stroke-width="2" fill="none"></path></g></g><mask></mask><g stroke-linecap="round"><g transform="translate(445 90) rotate(0 0 50)"><path d="M1.13 -0.11 C1.37 16.22, -0.84 82.05, -1.06 99.11 M-1.7 -2.64 C-1.7 13.99, -3.8 85.49, -3.88 102.25" stroke="currentColor" stroke-width="2" fill="none"></path></g></g><mask></mask><g stroke-linecap="round"><g transform="translate(130 58) rotate(0 0 25.5)"><path d="M0.77 -0.41 C0.6 8.16, -0.32 42.19, -0.35 50.83 M-0.28 -1.67 C-0.69 7.15, -1.56 43.78, -1.48 52.28" stroke="currentColor" stroke-width="2" fill="none"></path></g><g transform="translate(130 58) rotate(0 0 25.5)"><path d="M-9.78 28.69 C-7.63 36.44, -4.29 46.44, -1.48 52.28 M-9.78 28.69 C-7.2 36.15, -4.14 44.06, -1.48 52.28" stroke="currentColor" stroke-width="2" fill="none"></path></g><g transform="translate(130 58) rotate(0 0 25.5)"><path d="M7.32 28.88 C3.4 36.67, 0.66 46.61, -1.48 52.28 M7.32 28.88 C4.18 36.4, 1.52 44.26, -1.48 52.28" stroke="currentColor" stroke-width="2" fill="none"></path></g></g><mask></mask></svg>